<svg width="318" height="226" viewBox="0 0 318 226" fill="none" xmlns="http://www.w3.org/2000/svg">
<g id="Group">
<path id="Vector" d="M159.8 179.13L196.65 157.67C199.02 160.91 201.15 164.03 203.5 166.98C216.12 182.76 236.5 189.07 254.91 182.92C263.1 180.17 269.53 175.48 270.91 166.31C272.44 156.46 268.49 148.75 259.91 144.17C249.68 138.71 239.07 133.94 228.5 129.17C216.19 123.63 203.96 117.97 193.88 108.75C174.2 90.75 168.99 68.13 175.88 43.21C182.58 18.87 200.55 5.90997 224.73 1.92997C245.02 -1.42003 264.86 0.159988 282.55 12.35C291.62 18.6 298.3 26.95 303.93 37.11L268.76 59.78C266.76 57.03 265.04 54.48 263.17 52.01C255.34 41.67 244.74 38.77 232.6 41.47C225.7 43 220.76 47.47 219.07 54.68C217.38 61.89 218.28 69.07 224.19 73.88C229.701 78.1185 235.656 81.7464 241.95 84.7C254.73 91.04 268.04 96.33 280.58 103.08C296.2 111.47 309.08 123.08 314.09 140.89C324.63 178.38 309.19 215.67 261.86 223.96C235.2 228.63 209.52 225.36 186.42 209.88C175.01 202.24 166.36 192.1 159.8 179.13Z" fill="black"/>
<path id="Vector_2" d="M0.72998 184L37.59 161.62C40.14 165.49 42.44 169.27 45.03 172.85C52.8 183.62 64.03 187.37 76.61 183.54C85.06 180.97 90.02 173.13 90.31 161.42C90.5 153.76 90.39 146.09 90.39 138.42C90.39 95.28 90.46 52.1299 90.29 8.98994C90.29 4.26994 91.45 2.65994 96.34 2.79994C108.13 3.13994 119.94 3.00994 131.74 2.79994C135.16 2.79994 136.43 3.79995 136.42 7.33995C136.33 57.9799 136.5 108.62 136.15 159.26C136 167.568 134.753 175.819 132.44 183.8C127.16 202.52 115.07 215.57 96.38 221.29C72.38 228.63 48.86 227.7 26.82 214.39C15.09 207.35 6.90998 197 0.72998 184Z" fill="black"/>
</g>
</svg>
