<svg id="Ebene_1" data-name="Ebene 1" xmlns="http://www.w3.org/2000/svg" viewBox="0 0 480 480">
  <defs>
    <style>
      .cls-1 {
        fill: #fff;
      }
    </style>
  </defs>
  <g>
    <path class="cls-1" d="M57.64,136h480V616h-480Zm285.8,396.13c6.53,13,15.21,23.11,26.62,30.75,23.1,15.48,48.78,18.75,75.44,14.08,47.33-8.29,62.77-45.58,52.23-83.07-5-17.85-17.89-29.42-33.51-37.81-12.54-6.75-25.85-12-38.63-18.38a96.1,96.1,0,0,1-17.76-10.82c-5.91-4.81-6.82-11.93-5.12-19.2s6.63-11.68,13.53-13.21c12.14-2.7,22.74.2,30.57,10.54,1.87,2.47,3.62,5,5.59,7.77l35.19-22.68c-5.63-10.16-12.31-18.51-21.38-24.76-17.69-12.19-37.53-13.77-57.82-10.42-24.18,4-42.15,16.94-48.85,41.28-6.86,24.92-1.65,47.53,18,65.54,10.08,9.22,22.31,14.88,34.62,20.42,10.57,4.78,21.18,9.55,31.41,15,8.57,4.58,12.52,12.29,11,22.14-1.42,9.17-7.85,13.86-16,16.61-18.4,6.15-38.79-.16-51.41-15.94-2.35-3-4.48-6.07-6.85-9.31ZM184.37,537c6.18,13,14.36,23.37,26.09,30.45,22,13.31,45.58,14.24,69.56,6.9,18.69-5.72,30.78-18.77,36.06-37.49a94.27,94.27,0,0,0,3.71-24.54c.35-50.64.18-101.28.27-151.92,0-3.52-1.26-4.59-4.68-4.54-11.8.16-23.61.29-35.4,0-4.89-.14-6.07,1.47-6.05,6.19.17,43.14.1,86.29.1,129.43,0,7.66.11,15.33-.08,23-.29,11.71-5.25,19.55-13.7,22.12-12.57,3.83-23.81.08-31.58-10.69-2.59-3.58-4.89-7.36-7.44-11.23Z" transform="translate(-57.64 -136)"/>
    <path d="M343.44,532.13l36.85-21.46c2.37,3.24,4.5,6.36,6.85,9.31,12.62,15.78,33,22.09,51.41,15.94,8.19-2.75,14.62-7.44,16-16.61,1.53-9.85-2.42-17.56-11-22.14-10.23-5.46-20.84-10.23-31.41-15-12.31-5.54-24.54-11.2-34.62-20.42-19.68-18-24.89-40.62-18-65.54,6.7-24.34,24.67-37.3,48.85-41.28,20.29-3.35,40.13-1.77,57.82,10.42,9.07,6.25,15.75,14.6,21.38,24.76L452.4,412.78c-2-2.75-3.72-5.3-5.59-7.77-7.83-10.34-18.43-13.24-30.57-10.54-6.9,1.53-11.84,6-13.53,13.21s-.79,14.39,5.12,19.2a96.1,96.1,0,0,0,17.76,10.82c12.78,6.34,26.09,11.63,38.63,18.38,15.62,8.39,28.5,20,33.51,37.81,10.54,37.49-4.9,74.78-52.23,83.07-26.66,4.67-52.34,1.4-75.44-14.08C358.65,555.24,350,545.1,343.44,532.13Z" transform="translate(-57.64 -136)"/>
    <path d="M184.37,537l36.86-22.38c2.55,3.87,4.85,7.65,7.44,11.23,7.77,10.77,19,14.52,31.58,10.69,8.45-2.57,13.41-10.41,13.7-22.12.19-7.66.08-15.33.08-23,0-43.14.07-86.29-.1-129.43,0-4.72,1.16-6.33,6.05-6.19,11.79.34,23.6.21,35.4,0,3.42,0,4.69,1,4.68,4.54-.09,50.64.08,101.28-.27,151.92a94.27,94.27,0,0,1-3.71,24.54c-5.28,18.72-17.37,31.77-36.06,37.49-24,7.34-47.52,6.41-69.56-6.9C198.73,560.35,190.55,550,184.37,537Z" transform="translate(-57.64 -136)"/>
  </g>
</svg>
