<svg id="Ebene_1" data-name="Ebene 1" xmlns="http://www.w3.org/2000/svg" viewBox="0 0 349.94 312.56">
  <path class="cls-1" d="M370.13,442.56c1.72,11.49,3.65,22.44,4.92,33.47,1.44,12.5.8,25-3.17,37-7.14,21.68-24.49,31.1-46.57,25.3-18.7-4.92-33.8-16-48.18-28.33-3.14-2.68-6.18-5.49-9.29-8.26-7.12,5.93-13.8,11.92-20.94,17.32-12.55,9.5-25.9,17.47-41.77,20.29-17.13,3-32.16-4.5-39.37-20.26-6.27-13.73-7.11-28.33-5.53-43.05,1.18-11,3.2-22,4.9-33.36-6.89-2.47-14.26-4.88-21.45-7.75-14.47-5.76-28.11-12.95-39.06-24.4-15.49-16.2-16-35.57-1.15-52.29,12-13.44,27.7-21,44.14-27.29,5.87-2.24,11.87-4.13,17.53-6.08-1.69-11.28-3.56-22.22-4.9-33.23A88.92,88.92,0,0,1,162.6,257c6.6-23.91,25.27-34.39,49.14-27.4,19.86,5.82,35.69,18.22,50.78,31.74,1.6,1.44,3.14,2.95,4.75,4.47,7.57-6.24,14.81-12.57,22.44-18.4,10-7.6,20.71-13.9,32.84-17.52,25.68-7.67,45.57,4.2,51,30.44,4.35,20.91,1.13,41.38-3.54,61.77-.15.65-.26,1.3-.52,2.58,1.49.51,3,1.05,4.45,1.53,19.09,6.18,37.64,13.43,52.91,27,7,6.2,12.47,13.44,14.7,22.69,3.19,13.24-1.47,24.28-10.24,33.84-12.14,13.26-27.92,20.73-44.33,27C381.44,438.94,375.73,440.67,370.13,442.56Zm-102.27-2.71c9,0,18,0,27,0,3.23,0,5.61-1,7.34-4.05,9.27-16.33,18.79-32.52,28-48.9a7.59,7.59,0,0,0,0-6.29q-13.92-24.78-28.44-49.21a8.05,8.05,0,0,0-5.82-3.33q-28.2-.37-56.39,0a8.12,8.12,0,0,0-5.86,3.29C224,347.49,214.75,363.83,205.28,380a6.5,6.5,0,0,0-.07,7.34q14.06,24.11,27.87,48.37a7.55,7.55,0,0,0,7.31,4.11C249.54,439.82,258.7,439.84,267.86,439.85Zm-87.44,6.85c-5.47,19.4-7.12,38.5-4.8,54.38,2.88,19.72,14.7,27.87,32.86,22.28,19.35-6,34-19,48.32-32.28-8.41-10.51-16.76-20.43-24.47-30.83-3.54-4.78-7.09-7.86-13.4-7.5-3.58.21-7.24-.83-10.85-1.42C198.93,449.83,189.79,448.27,180.42,446.7Zm98.17,44.48c3.05,2.78,6.14,5.8,9.43,8.56,12.66,10.63,25.67,20.75,42.29,24.5,13.81,3.11,23.5-2,27.2-15.66A84.55,84.55,0,0,0,360.4,483c-.55-12.14-2.88-24.2-4.44-36.18a28.13,28.13,0,0,0-2.89,0c-14.12,2.15-28.25,4.27-42.35,6.55a7.16,7.16,0,0,0-4.13,2.29C297.34,467.24,288.24,478.91,278.59,491.18ZM169.4,428.07c4.41-11.45,8-22.86,13.18-33.55,3.75-7.78,3.52-14.14-.15-21.83-5.05-10.55-8.62-21.81-13-33.24-17.27,5.11-34.08,11.15-48.37,22.53-17.82,14.21-18,29-.44,43.22C134.94,416.8,152,422.88,169.4,428.07ZM366.11,428c3.28-1,6.64-1.92,9.89-3.09,15.7-5.64,31.16-11.79,43.23-23.93,11.17-11.25,11.24-22.66.41-34.18a47,47,0,0,0-4.41-4.05c-11.32-9.37-24.58-15-38.29-19.82-3.7-1.3-7.48-2.35-10.86-3.4-5.79,14.45-11.36,28.28-16.83,42.14a5.6,5.6,0,0,0-.13,3.76C354.63,399.48,360.28,413.47,366.11,428ZM256.68,276.26c-4.11-3.66-8.21-7.57-12.58-11.15C233,256,221.41,247.6,207.23,243.79c-15.91-4.28-26.42,1.77-30.53,17.63-3.32,12.83-2.5,25.78-.56,38.68,1,7,2.6,13.88,3.86,20.41,15.79-2.25,30.74-4.36,45.68-6.57a4.89,4.89,0,0,0,2.79-1.71C237.75,300.49,247,288.69,256.68,276.26Zm98.38,44.52c4.08-17.38,7.38-34.78,4.76-52.74-3.44-23.49-16.7-31.13-38.61-22-16.4,6.85-29.91,17.89-42.31,30.39-.17.17-.08.62-.08.63,6.78,8.3,14.1,16,19.86,24.67s12.5,14.58,23.54,13.66a4.35,4.35,0,0,1,1,.19ZM195.25,401.39c-3.91,10.67-7.43,20.24-11.26,30.7l32.14,5.6Zm156.06,30.7L340,401.45l-20.85,36.23Zm-83.65,48.17,20.72-24.95H246.86ZM195.25,366.11l20.95-36.38L184,335.43C187.83,345.88,191.34,355.43,195.25,366.11Zm156-30.76-32.14-5.46L340,366.08C343.93,355.42,347.47,345.78,351.28,335.35Zm-83.64-48.09L247.08,312h41.14Z" transform="translate(-92.65 -227.48)"/>
  <path class="cls-1" d="M298.81,384.45c-.29,17.65-14.38,30.91-32.5,30.57-16.84-.31-30.23-14.77-29.84-32.22a31.18,31.18,0,1,1,62.34,1.65Z" transform="translate(-92.65 -227.48)"/>
</svg>
