<svg width="350" height="313" viewBox="0 0 350 313" fill="none" xmlns="http://www.w3.org/2000/svg">
<g id="react 1" clip-path="url(#clip0)">
<path id="Vector" d="M277.48 215.08C279.2 226.57 281.13 237.52 282.4 248.55C283.84 261.05 283.2 273.55 279.23 285.55C272.09 307.23 254.74 316.65 232.66 310.85C213.96 305.93 198.86 294.85 184.48 282.52C181.34 279.84 178.3 277.03 175.19 274.26C168.07 280.19 161.39 286.18 154.25 291.58C141.7 301.08 128.35 309.05 112.48 311.87C95.35 314.87 80.32 307.37 73.11 291.61C66.84 277.88 66 263.28 67.58 248.56C68.76 237.56 70.78 226.56 72.48 215.2C65.59 212.73 58.22 210.32 51.03 207.45C36.56 201.69 22.92 194.5 11.97 183.05C-3.52001 166.85 -4.03001 147.48 10.82 130.76C22.82 117.32 38.52 109.76 54.96 103.47C60.83 101.23 66.83 99.34 72.49 97.39C70.8 86.11 68.93 75.17 67.59 64.16C66.0928 52.5705 66.8948 40.7994 69.95 29.52C76.55 5.61001 95.22 -4.86998 119.09 2.12002C138.95 7.94002 154.78 20.34 169.87 33.86C171.47 35.3 173.01 36.81 174.62 38.33C182.19 32.09 189.43 25.76 197.06 19.93C207.06 12.33 217.77 6.03001 229.9 2.41001C255.58 -5.25999 275.47 6.61 280.9 32.85C285.25 53.76 282.03 74.23 277.36 94.62C277.21 95.27 277.1 95.92 276.84 97.2C278.33 97.71 279.84 98.25 281.29 98.73C300.38 104.91 318.93 112.16 334.2 125.73C341.2 131.93 346.67 139.17 348.9 148.42C352.09 161.66 347.43 172.7 338.66 182.26C326.52 195.52 310.74 202.99 294.33 209.26C288.79 211.46 283.08 213.19 277.48 215.08ZM175.21 212.37C184.21 212.37 193.21 212.37 202.21 212.37C205.44 212.37 207.82 211.37 209.55 208.32C218.82 191.99 228.34 175.8 237.55 159.42C238 158.432 238.232 157.36 238.232 156.275C238.232 155.19 238 154.118 237.55 153.13C228.27 136.61 218.79 120.207 209.11 103.92C208.436 102.979 207.568 102.195 206.563 101.62C205.559 101.046 204.442 100.694 203.29 100.59C184.49 100.343 165.693 100.343 146.9 100.59C145.745 100.688 144.624 101.033 143.614 101.6C142.603 102.168 141.725 102.945 141.04 103.88C131.35 120.01 122.1 136.35 112.63 152.52C111.88 153.594 111.472 154.869 111.46 156.179C111.447 157.489 111.831 158.772 112.56 159.86C121.933 175.933 131.223 192.057 140.43 208.23C141.106 209.561 142.161 210.662 143.462 211.393C144.763 212.125 146.252 212.454 147.74 212.34C156.89 212.34 166.05 212.36 175.21 212.37ZM87.77 219.22C82.3 238.62 80.65 257.72 82.97 273.6C85.85 293.32 97.67 301.47 115.83 295.88C135.18 289.88 149.83 276.88 164.15 263.6C155.74 253.09 147.39 243.17 139.68 232.77C136.14 227.99 132.59 224.91 126.28 225.27C122.7 225.48 119.04 224.44 115.43 223.85C106.28 222.35 97.14 220.79 87.77 219.22V219.22ZM185.94 263.7C188.99 266.48 192.08 269.5 195.37 272.26C208.03 282.89 221.04 293.01 237.66 296.76C251.47 299.87 261.16 294.76 264.86 281.1C267.123 272.771 268.098 264.144 267.75 255.52C267.2 243.38 264.87 231.32 263.31 219.34C262.347 219.29 261.383 219.29 260.42 219.34C246.3 221.49 232.17 223.61 218.07 225.89C216.474 226.164 215.018 226.972 213.94 228.18C204.69 239.76 195.59 251.43 185.94 263.7V263.7ZM76.75 200.59C81.16 189.14 84.75 177.73 89.93 167.04C93.68 159.26 93.45 152.9 89.78 145.21C84.73 134.66 81.16 123.4 76.78 111.97C59.51 117.08 42.7 123.12 28.41 134.5C10.59 148.71 10.41 163.5 27.97 177.72C42.29 189.32 59.35 195.4 76.75 200.59ZM273.46 200.52C276.74 199.52 280.1 198.6 283.35 197.43C299.05 191.79 314.51 185.64 326.58 173.5C337.75 162.25 337.82 150.84 326.99 139.32C325.608 137.878 324.135 136.525 322.58 135.27C311.26 125.9 298 120.27 284.29 115.45C280.59 114.15 276.81 113.1 273.43 112.05C267.64 126.5 262.07 140.33 256.6 154.19C256.124 155.391 256.078 156.719 256.47 157.95C261.98 172 267.63 185.99 273.46 200.52ZM164.03 48.78C159.92 45.12 155.82 41.21 151.45 37.63C140.35 28.52 128.76 20.12 114.58 16.31C98.67 12.03 88.16 18.08 84.05 33.94C80.73 46.77 81.55 59.72 83.49 72.62C84.49 79.62 86.09 86.5 87.35 93.03C103.14 90.78 118.09 88.67 133.03 86.46C134.129 86.2273 135.114 85.6235 135.82 84.75C145.1 73.01 154.35 61.21 164.03 48.78ZM262.41 93.3C266.49 75.92 269.79 58.52 267.17 40.56C263.73 17.07 250.47 9.43001 228.56 18.56C212.16 25.41 198.65 36.45 186.25 48.95C186.08 49.12 186.17 49.57 186.17 49.58C192.95 57.88 200.27 65.58 206.03 74.25C211.79 82.92 218.53 88.83 229.57 87.91C229.91 87.934 230.245 87.9977 230.57 88.1L262.41 93.3ZM102.6 173.91C98.69 184.58 95.17 194.15 91.34 204.61L123.48 210.21L102.6 173.91ZM258.66 204.61L247.35 173.97L226.5 210.2L258.66 204.61ZM175.01 252.78L195.73 227.83H154.21L175.01 252.78ZM102.6 138.63L123.55 102.25L91.35 107.95C95.18 118.4 98.69 127.95 102.6 138.63ZM258.6 107.87L226.46 102.41L247.35 138.6C251.28 127.94 254.82 118.3 258.63 107.87H258.6ZM174.96 59.78L154.43 84.52H195.57L174.96 59.78Z" fill="#1D1D1B"/>
<path id="Vector_2" d="M206.16 156.97C205.87 174.62 191.78 187.88 173.66 187.54C156.82 187.23 143.43 172.77 143.82 155.32C144.039 147.053 147.533 139.212 153.533 133.521C159.533 127.83 167.548 124.756 175.815 124.975C184.082 125.194 191.923 128.688 197.614 134.688C203.305 140.688 206.379 148.703 206.16 156.97V156.97Z" fill="#1D1D1B"/>
</g>
<defs>
<clipPath id="clip0">
<rect width="349.94" height="312.56" fill="white"/>
</clipPath>
</defs>
</svg>
