<svg id="Ebene_1" data-name="Ebene 1" xmlns="http://www.w3.org/2000/svg" viewBox="0 0 427 320">
  <path d="M259,161c6.76,1.49,13.62,2.66,20.27,4.53,12.4,3.49,23.55,9.25,31.79,19.56,9.08,11.37,10.89,24.62,8.29,38.3-6.06,31.76-25.67,53.77-53.23,68.59A135.33,135.33,0,0,1,182,307a43.11,43.11,0,0,1-28.79-16.42,27.56,27.56,0,0,1-3.83-8c-.32-.91.42-2.6,1.23-3.34.48-.45,2.41-.13,3,.5,16.73,17.17,37.34,15.31,58,11.24,26.45-5.22,49.62-17.05,67.91-37.32,8.36-9.26,15-19.58,16.73-32.31,2-15.21-4.13-24.8-18.76-29.85-17.07-5.89-34.57-5.63-51.83-2.26-44.31,8.65-83,29-116.94,58.51C97.53,257.4,88.57,269,84.89,283.85c-4.74,19.09,2.76,34,16.58,46.28,11.21,9.91,23.18,19,34.73,28.5A141.27,141.27,0,0,1,147.69,369c2,2.1,3.56,2.19,6,.83,12.19-6.83,24.5-13.46,36.7-20.28a15,15,0,0,0,3.95-3.64C201,337.84,208.6,331,218,326.22c.59-.3,1.18-.61,1.79-.88,15.29-7,26.15.53,25,17.26-.13,1.94-.39,3.88-.64,6.22,1.54-.38,2.6-.71,3.67-.89,7.58-1.23,11.64,3,9.83,10.4-3.31,13.56-6.86,27.07-10,40.66-.77,3.26-.48,6.78-.68,10.17l1.52.48c1.65-3.09,3.48-6.1,4.91-9.29q17-37.77,33.82-75.63c1.52-3.46,1.75-7.5,3.31-10.93,1-2.14,3.11-4.82,5.11-5.2a69,69,0,0,1,16.78-1.26c5.09.28,6.48,3.12,4.61,8-3.83,10-5.6,20.25-3,30.81a70,70,0,0,0,5.36,14c10-17.54,22-33.66,27-53.39,1-3.76,2.72-8.95,5.57-10.24,6.44-2.91,13.89-3.93,20.83-.84,1.33.58,2.44,3.78,2.13,5.5-.84,4.72-2.92,9.22-3.73,13.94-2.33,13.54.78,25.92,9.2,38.1,2.18-.87,4.42-1.88,6.74-2.68,24.23-8.31,48-9.11,70.56,5,10.6,6.65,16.93,16.58,20.43,28.44v14c-.48,1-1,2-1.43,3a29.19,29.19,0,0,1-18.28,17.22c-1.14.39-2.66-.36-4-.58a26.21,26.21,0,0,1,1.76-3.61c.43-.63,1.35-.93,2-1.41,10.86-7.47,13.91-18,7.73-29.51A40.84,40.84,0,0,0,455.75,371c-11.28-9.09-24.94-11.28-39-11.63-10.83-.28-21.5.67-31.75,5.43.59,1.81,1.45,3.35,1.55,4.93.37,6.23,2,12.89.44,18.61-4.48,16.1-26.47,27.26-38.38,28.06-6.37.43-10.7-3.52-10.58-9.92a40.65,40.65,0,0,1,2.35-13.12c3.93-10.72,11.29-19.15,19.77-26.55,2.09-1.82,2-3,1-5.4-3.29-8.49-6.14-17.16-9.14-25.76-.33-1-.59-1.95-.85-2.82-8.09,13.29-16.09,26.3-23.87,39.44-.73,1.23-.32,3.29-.08,4.91,1,7.17,3.85,14.51,3.06,21.45-2.17,19.07-31.41,36.8-49.88,31.21-4.73-1.44-6.87-5.71-4.74-10.25a35.57,35.57,0,0,1,4.67-7c7.92-9.87,16-19.57,23.79-29.56,1.06-1.37,1.12-4.29.47-6.07-2-5.6-4.9-10.91-6.94-16.52-1.71-4.7-2.71-9.66-4.22-15.24-1,2-1.69,3.36-2.31,4.69-8.74,18.66-17.11,37.51-26.33,55.92-4.43,8.85-10.17,17.11-15.9,25.22-2.82,4-7.27,6.64-12.66,5s-7.56-6.24-8.22-11.46c-.68-5.45-1-10.94-1.55-17.21-.82,1.75-1.27,2.79-1.78,3.79-4,7.84-7.79,15.8-12.13,23.45a14.46,14.46,0,0,1-12.16,7.54c-9.46.73-13.93-5.06-17.39-12.28a65.71,65.71,0,0,1-5.42-42.3c1.11-5.56,2.18-11.14,3.44-17.55l-21.64,12.52c1.36,6.45,3.08,12.21,3.71,18.08,3.14,28.93-6.5,52.65-30.92,68.9-8.07,5.37-18.11,7.77-27.24,11.53H87c-7.7-1.67-14.29-4.72-18.14-12.32-5.86-11.57-5.2-23.18-.61-34.74,5.06-12.73,15-21.57,25.83-29.08,12.68-8.79,26-16.62,39.33-25-.82-.7-2-1.85-3.26-2.78-9.62-6.85-19.33-13.57-28.89-20.5C79.86,341,59,325,51,298V284c1.07-3.24,2-6.53,3.23-9.73,6.71-18,18.33-32.73,32.4-45.43,35-31.58,76-51.91,121.45-63.72,7.18-1.87,14.61-2.77,21.92-4.12ZM144.51,389.92c-14.94,8.59-29.14,17.56-40.93,29.72-7,7.19-11.89,15.65-12,26.12-.07,8.35,4.92,12.48,13.19,11.09C133.32,452.08,153.84,418,144.51,389.92Zm53.74,8c.47,3.78.6,7.64,1.53,11.3.61,2.36,2.4,4.43,3.67,6.63,1.8-1.81,4.34-3.3,5.3-5.48,5.47-12.45,10.93-24.93,15.68-37.68,3.28-8.83,5.5-18.07,7.93-27.2.41-1.52,0-4.18-1-4.87s-3.72-.36-5,.52c-3.66,2.5-7.68,5-10.32,8.4C205.16,363.69,198.85,379.72,198.25,397.89ZM352.47,402c13.23-3,21.28-17.79,15.59-28.27C360.14,381.64,354.14,390.32,352.47,402Zm-40.69-8.48c-6.6,7.71-12.72,14.87-19.32,22.57C302.22,413.85,311.72,402.61,311.78,393.49Z" transform="translate(-51 -161)"/>
</svg>
